<svg width="200" height="200" viewBox="0 0 200 200" fill="none" xmlns="http://www.w3.org/2000/svg">
<g clip-path="url(#clip0_8_2)">
<path d="M81.8676 46.2614C81.5948 43.5114 80.4244 41.375 78.3562 39.8523C76.288 38.3295 73.4812 37.5682 69.9357 37.5682C67.5266 37.5682 65.4926 37.9091 63.8335 38.5909C62.1744 39.25 60.9016 40.1705 60.0153 41.3523C59.1516 42.5341 58.7198 43.875 58.7198 45.375C58.6744 46.625 58.9357 47.7159 59.5039 48.6477C60.0948 49.5795 60.9016 50.3864 61.9244 51.0682C62.9471 51.7273 64.1289 52.3068 65.4698 52.8068C66.8107 53.2841 68.2426 53.6932 69.7653 54.0341L76.038 55.5341C79.0835 56.2159 81.8789 57.125 84.4244 58.2614C86.9698 59.3977 89.1744 60.7955 91.038 62.4545C92.9016 64.1136 94.3448 66.0682 95.3676 68.3182C96.413 70.5682 96.9471 73.1477 96.9698 76.0568C96.9471 80.3295 95.8562 84.0341 93.6971 87.1705C91.5607 90.2841 88.4698 92.7045 84.4244 94.4318C80.4016 96.1364 75.5494 96.9886 69.8676 96.9886C64.2312 96.9886 59.3221 96.125 55.1403 94.3977C50.9812 92.6705 47.7312 90.1136 45.3903 86.7273C43.0721 83.3182 41.8562 79.1023 41.7426 74.0795H56.0266C56.1857 76.4205 56.8562 78.375 58.038 79.9432C59.2426 81.4886 60.8448 82.6591 62.8448 83.4545C64.8676 84.2273 67.1516 84.6136 69.6971 84.6136C72.1971 84.6136 74.3676 84.25 76.2085 83.5227C78.0721 82.7955 79.5153 81.7841 80.538 80.4886C81.5607 79.1932 82.0721 77.7045 82.0721 76.0227C82.0721 74.4545 81.6062 73.1364 80.6744 72.0682C79.7653 71 78.4244 70.0909 76.6516 69.3409C74.9016 68.5909 72.7539 67.9091 70.2085 67.2955L62.6062 65.3864C56.7198 63.9545 52.0721 61.7159 48.663 58.6705C45.2539 55.625 43.5607 51.5227 43.5835 46.3636C43.5607 42.1364 44.6857 38.4432 46.9585 35.2841C49.2539 32.125 52.4016 29.6591 56.4016 27.8864C60.4016 26.1136 64.9471 25.2273 70.038 25.2273C75.2198 25.2273 79.7426 26.1136 83.6062 27.8864C87.4926 29.6591 90.5153 32.125 92.6744 35.2841C94.8335 38.4432 95.9471 42.1023 96.0153 46.2614H81.8676ZM101.36 38.3523V26.1818H158.701V38.3523H137.326V96H122.735V38.3523H101.36ZM48.7142 173H32.896L56.9982 103.182H76.021L100.089 173H84.271L66.7823 119.136H66.2369L48.7142 173ZM47.7255 145.557H85.0892V157.08H47.7255V145.557ZM130.363 173H105.613V103.182H130.567C137.59 103.182 143.635 104.58 148.703 107.375C153.772 110.148 157.669 114.136 160.397 119.341C163.147 124.545 164.522 130.773 164.522 138.023C164.522 145.295 163.147 151.545 160.397 156.773C157.669 162 153.749 166.011 148.635 168.807C143.544 171.602 137.453 173 130.363 173ZM120.374 160.352H129.749C134.113 160.352 137.783 159.58 140.76 158.034C143.76 156.466 146.01 154.045 147.51 150.773C149.033 147.477 149.794 143.227 149.794 138.023C149.794 132.864 149.033 128.648 147.51 125.375C146.01 122.102 143.772 119.693 140.794 118.148C137.817 116.602 134.147 115.83 129.783 115.83H120.374V160.352Z" fill="white"/>
</g>
<defs>
<clipPath id="clip0_8_2">
<rect width="200" height="200" fill="white"/>
</clipPath>
</defs>
</svg>
